<?xml version="1.0" standalone="no"?>
<!DOCTYPE svg PUBLIC "-//W3C//DTD SVG 20010904//EN"
 "http://www.w3.org/TR/2001/REC-SVG-20010904/DTD/svg10.dtd">
<svg version="1.0" xmlns="http://www.w3.org/2000/svg"
 width="16px" height="16px" viewBox="0 0 52.000000 52.000000"
 preserveAspectRatio="xMidYMid meet">
<metadata>
Created by potrace 1.10, written by Peter Selinger 2001-2011
</metadata>
<g transform="translate(0.000000,52.000000) scale(0.100000,-0.100000)"
fill="#FFFFFF" stroke="none">
<path d="M37 496 c-35 -32 -39 -63 -35 -265 l3 -173 33 -29 32 -29 186 0 c202
0 230 6 253 57 7 15 11 99 11 214 l0 191 -29 29 -29 29 -200 0 c-196 0 -199 0
-225 -24z m443 -16 l30 -30 -1 -181 0 -182 -34 -34 -34 -35 -174 -1 c-249 -2
-255 4 -256 239 0 154 7 197 41 230 22 22 30 23 211 23 l188 1 29 -30z"/>
<path d="M111 434 c-6 -14 -9 -30 -6 -35 4 -5 1 -9 -4 -9 -6 0 -11 -17 -10
-37 1 -34 2 -35 9 -13 5 16 8 -22 9 -100 1 -69 5 -130 9 -136 4 -7 28 -13 54
-15 40 -4 49 -1 59 18 6 12 10 35 7 51 -4 30 -4 30 54 34 44 3 64 10 84 29 71
65 71 176 0 223 -20 12 -50 16 -139 16 -113 0 -114 0 -126 -26z m276 -18 c20
-24 24 -36 20 -75 -8 -84 -42 -111 -138 -111 l-48 0 -3 -57 -3 -58 -42 -3 -42
-3 0 171 -1 172 116 -4 c113 -3 116 -4 141 -32z"/>
<path d="M157 433 c-4 -3 -7 -11 -7 -17 0 -6 4 -5 9 3 6 10 29 12 89 10 44 -2
75 -1 69 3 -15 10 -151 10 -160 1z"/>
<path d="M208 393 c7 -3 12 -23 12 -49 l0 -44 38 0 c91 1 99 76 9 82 -20 1
-37 6 -37 10 0 4 -8 8 -17 7 -11 0 -13 -3 -5 -6z m81 -42 c21 -13 5 -41 -24
-41 -20 0 -25 5 -25 25 0 26 22 33 49 16z"/>
</g>
</svg>
